HIERARCHY
ROOT Hips
{
	OFFSET 0.000000 89.005402 0.000000
	CHANNELS 6 Xposition Yposition Zposition Xrotation Yrotation Zrotation
	JOINT Spine
	{
		OFFSET 0.116900 10.681000 0.373400
		CHANNELS 3 Xrotation Yrotation Zrotation
		JOINT Spine1
		{
			OFFSET 0.000000 13.840401 0.053500
			CHANNELS 3 Xrotation Yrotation Zrotation
			JOINT Spine2
			{
				OFFSET 0.000000 14.712700 -0.366200
				CHANNELS 3 Xrotation Yrotation Zrotation
				JOINT Neck
				{
					OFFSET 0.000000 35.415497 -3.314200
					CHANNELS 3 Xrotation Yrotation Zrotation
					JOINT Head
					{
						OFFSET 0.000000 16.899200 1.218300
						CHANNELS 3 Xrotation Yrotation Zrotation
						JOINT HeadTop_End
						{
							OFFSET 0.000000 22.206207 2.192500
							CHANNELS 3 Xrotation Yrotation Zrotation
							End Site
							{
								OFFSET 0.000000 22.314178 0.000000
							}
						}
					}
				}
				JOINT LeftShoulder
				{
					OFFSET 12.896400 26.716293 -4.548400
					CHANNELS 3 Xrotation Yrotation Zrotation
					JOINT LeftArm
					{
						OFFSET 19.027000 -4.857010 -1.718400
						CHANNELS 3 Xrotation Yrotation Zrotation
						JOINT LeftForeArm
						{
							OFFSET 24.179897 0.000000 0.000000
							CHANNELS 3 Xrotation Yrotation Zrotation
							JOINT LeftHand
							{
								OFFSET 27.156403 0.000000 0.000000
								CHANNELS 3 Xrotation Yrotation Zrotation
								JOINT LeftHandIndex1
								{
									OFFSET 16.441200 0.000000 0.000000
									CHANNELS 3 Xrotation Yrotation Zrotation
									JOINT LeftHandIndex2
									{
										OFFSET 4.821899 0.000000 0.000000
										CHANNELS 3 Xrotation Yrotation Zrotation
										JOINT LeftHandIndex3
										{
											OFFSET 6.386497 0.000000 0.000000
											CHANNELS 3 Xrotation Yrotation Zrotation
											JOINT LeftHandIndex4
											{
												OFFSET 5.188988 0.000000 0.000000
												CHANNELS 3 Xrotation Yrotation Zrotation
												End Site
												{
													OFFSET -0.178703 5.185913 0.000177
												}
											}
										}
									}
								}
								JOINT LeftHandThumb1
								{
									OFFSET 6.534897 -5.032593 5.900300
									CHANNELS 3 Xrotation Yrotation Zrotation
									JOINT LeftHandThumb2
									{
										OFFSET 3.818176 -2.204422 2.204423
										CHANNELS 3 Xrotation Yrotation Zrotation
										JOINT LeftHandThumb3
										{
											OFFSET 3.252098 -1.877594 1.877601
											CHANNELS 3 Xrotation Yrotation Zrotation
											JOINT LeftHandThumb4
											{
												OFFSET 5.251778 -3.032120 3.032117
												CHANNELS 3 Xrotation Yrotation Zrotation
												End Site
												{
													OFFSET 0.000023 6.780014 0.000000
												}
											}
										}
									}
								}
							}
						}
					}
				}
				JOINT RightShoulder
				{
					OFFSET -12.896300 26.716293 -4.548400
					CHANNELS 3 Xrotation Yrotation Zrotation
					JOINT RightArm
					{
						OFFSET -19.027000 -4.857010 -1.718400
						CHANNELS 3 Xrotation Yrotation Zrotation
						JOINT RightForeArm
						{
							OFFSET -24.179897 0.000000 0.000000
							CHANNELS 3 Xrotation Yrotation Zrotation
							JOINT RightHand
							{
								OFFSET -27.156403 0.000000 0.000000
								CHANNELS 3 Xrotation Yrotation Zrotation
								JOINT RightHandThumb1
								{
									OFFSET -6.591202 -4.852203 5.988100
									CHANNELS 3 Xrotation Yrotation Zrotation
									JOINT RightHandThumb2
									{
										OFFSET -3.818176 -2.204422 2.204423
										CHANNELS 3 Xrotation Yrotation Zrotation
										JOINT RightHandThumb3
										{
											OFFSET -3.252098 -1.877594 1.877601
											CHANNELS 3 Xrotation Yrotation Zrotation
											JOINT RightHandThumb4
											{
												OFFSET -5.251778 -3.032120 3.032117
												CHANNELS 3 Xrotation Yrotation Zrotation
												End Site
												{
													OFFSET -0.000023 6.780014 0.000000
												}
											}
										}
									}
								}
								JOINT RightHandIndex1
								{
									OFFSET -16.029404 0.000000 0.000000
									CHANNELS 3 Xrotation Yrotation Zrotation
									JOINT RightHandIndex2
									{
										OFFSET -5.213303 0.000000 0.000000
										CHANNELS 3 Xrotation Yrotation Zrotation
										JOINT RightHandIndex3
										{
											OFFSET -6.386528 0.000000 0.000000
											CHANNELS 3 Xrotation Yrotation Zrotation
											JOINT RightHandIndex4
											{
												OFFSET -5.189026 0.000000 0.000000
												CHANNELS 3 Xrotation Yrotation Zrotation
												End Site
												{
													OFFSET 0.236702 5.183624 0.001972
												}
											}
										}
									}
								}
							}
						}
					}
				}
			}
		}
	}
	JOINT LeftUpLeg
	{
		OFFSET 14.073000 -7.904099 -1.463000
		CHANNELS 3 Xrotation Yrotation Zrotation
		JOINT LeftLeg
		{
			OFFSET -0.109806 -34.073280 4.093200
			CHANNELS 3 Xrotation Yrotation Zrotation
			JOINT LeftFoot
			{
				OFFSET 0.109806 -29.899420 -6.319000
				CHANNELS 3 Xrotation Yrotation Zrotation
				JOINT LeftToeBase
				{
					OFFSET 1.551100 -14.988700 20.535801
					CHANNELS 3 Xrotation Yrotation Zrotation
					JOINT LeftToe_End
					{
						OFFSET 0.221200 0.570800 13.248301
						CHANNELS 3 Xrotation Yrotation Zrotation
						End Site
						{
							OFFSET 0.000000 13.262435 0.000000
						}
					}
				}
			}
		}
	}
	JOINT RightUpLeg
	{
		OFFSET -13.839300 -7.904099 -1.463000
		CHANNELS 3 Xrotation Yrotation Zrotation
		JOINT RightLeg
		{
			OFFSET 0.109694 -34.073219 4.093300
			CHANNELS 3 Xrotation Yrotation Zrotation
			JOINT RightFoot
			{
				OFFSET -0.109694 -29.899384 -6.319200
				CHANNELS 3 Xrotation Yrotation Zrotation
				JOINT RightToeBase
				{
					OFFSET -1.551100 -14.988700 20.535801
					CHANNELS 3 Xrotation Yrotation Zrotation
					JOINT RightToe_End
					{
						OFFSET -0.221200 0.570900 13.248299
						CHANNELS 3 Xrotation Yrotation Zrotation
						End Site
						{
							OFFSET 0.000000 13.262440 0.000000
						}
					}
				}
			}
		}
	}
}
MOTION
Frames: 4
Frame Time: 0.033333
-32.282997 81.401329 23.350182 69.440505 -76.987126 66.373709 4.081797 2.685015 -0.832650 3.895131 2.573346 -0.511281 3.887250 2.563413 -0.459940 -1.695769 8.157229 -0.276282 -12.509677 46.393312 2.830107 -0.000000 -0.000001 -0.000000 0.037169 -14.236559 -15.472190 -13.519964 -28.761401 -53.386773 -0.000005 -21.333268 -0.000001 -88.210110 19.376330 53.971673 2.878048 7.353397 -58.659673 6.385724 5.826667 -95.251851 2.817846 5.005788 -58.730543 0.000001 -0.000000 -0.000000 2.333991 -4.852054 -3.963514 13.533739 36.265904 -6.789645 18.237531 69.607619 3.188335 -0.000000 0.000003 -0.000001 0.041689 13.801888 13.110121 -8.663084 14.838519 54.764262 -32.117315 47.327357 36.716030 -4.831693 -2.408012 1.544019 26.039811 20.977067 0.020988 7.232961 -21.794165 -2.695385 -6.336653 -6.575908 -23.602438 -0.000001 0.000003 -0.000002 4.494987 13.153268 -13.579754 0.477988 -2.056992 26.161207 0.047494 -0.664122 8.180518 -0.000002 0.000003 -0.000000 -37.071897 3.566976 21.297308 31.690845 -2.690422 2.935893 -4.856527 1.733136 -16.268981 -0.606401 0.009682 -0.915793 0.000000 0.000001 -0.000000 -31.166290 -5.910346 -14.816910 32.398814 -4.519356 -0.994338 -9.441187 -2.685994 16.398208 0.000003 -0.000010 0.000001 -0.000000 0.000001 0.000000 
-32.284744 81.211845 22.583374 68.453126 -77.210111 65.585334 4.138796 2.556893 -0.644040 3.949995 2.436713 -0.380874 3.941009 2.426676 -0.330396 -1.923222 8.258679 -0.276662 -12.525949 47.068200 2.630383 0.000000 -0.000000 0.000000 -0.007761 -14.721723 -15.669933 -11.956188 -33.058170 -52.879082 0.000004 -23.456193 -0.000005 -81.280822 17.108265 52.549314 2.878044 7.353394 -58.659679 6.385728 5.826666 -95.251851 2.817844 5.005788 -58.730543 0.000002 0.000000 -0.000000 2.333988 -4.852055 -3.963516 13.533745 36.265904 -6.789648 18.237543 69.607612 3.188343 0.000001 0.000001 0.000002 0.009860 14.201867 13.258033 -10.334793 15.829723 55.282421 -34.907779 44.299962 37.940079 -4.811599 -1.960255 1.763209 25.548034 21.890488 -0.171685 7.325255 -22.588814 -2.752896 -5.679158 -6.685489 -23.699230 -0.000000 -0.000001 0.000001 4.918934 13.180782 -13.014949 0.434348 -1.965710 24.917843 0.038397 -0.597578 7.356224 -0.000000 0.000001 -0.000000 -36.932499 3.405108 21.600063 31.716192 -2.770850 3.193403 -4.559799 1.736049 -16.742375 -0.645155 0.010950 -0.973381 -0.000000 0.000000 -0.000000 -31.603319 -5.567038 -14.471282 33.908693 -4.782945 -1.045595 -9.655420 -2.699213 16.280980 -0.753617 0.000697 -0.053173 -0.000000 -0.000001 0.000000 
-32.285915 80.971001 21.716486 67.417990 -77.550262 64.773170 4.207498 2.412724 -0.405361 4.015736 2.271595 -0.243895 4.005730 2.261740 -0.194984 -2.117610 8.334800 -0.277545 -12.562793 47.591621 2.516682 0.000001 -0.000002 0.000000 -0.041644 -15.289705 -15.698869 -9.903722 -37.704611 -51.784633 -0.000001 -25.719586 -0.000006 -74.535034 14.057583 50.305877 2.878050 7.353394 -58.659679 6.385724 5.826667 -95.251851 2.817846 5.005787 -58.730550 0.000001 0.000000 0.000000 2.333991 -4.852055 -3.963514 13.533745 36.265904 -6.789648 18.237541 69.607619 3.188342 0.000001 0.000001 0.000000 -0.023690 14.651475 13.401219 -12.191607 16.713285 56.300259 -37.395614 40.365588 38.097532 -4.800136 -1.519333 1.634441 24.915227 22.907094 -0.386129 7.443886 -23.614244 -2.825535 -4.836241 -7.069017 -23.798744 0.000001 0.000002 -0.000001 5.275072 13.141115 -12.025249 0.393091 -1.874405 23.686715 0.030546 -0.533058 6.557941 0.000000 0.000004 0.000001 -36.618413 3.094615 21.898860 31.782311 -2.687901 3.582271 -4.293147 1.770746 -17.433938 -0.681345 0.012202 -1.026955 0.000000 0.000000 0.000000 -31.941813 -5.286938 -14.034569 35.517674 -4.974568 -1.112443 -10.230402 -2.720456 16.006717 -2.010064 0.007722 -0.219294 0.000000 0.000001 -0.000000 
-32.289547 80.663818 20.801636 66.380320 -77.970270 63.996994 4.262844 2.227689 -0.131054 4.070871 2.052583 -0.125624 4.059781 2.044139 -0.079057 -2.281582 8.417950 -0.293780 -12.604989 48.074150 2.558608 0.000000 0.000002 -0.000000 -0.060518 -15.892267 -15.572719 -7.397199 -42.298354 -50.048102 0.000005 -28.323563 0.000009 -68.653530 10.418857 47.752868 2.878047 7.353395 -58.659673 6.385725 5.826666 -95.251858 2.817845 5.005787 -58.730543 0.000002 -0.000000 -0.000000 2.333991 -4.852056 -3.963511 13.533742 36.265900 -6.789648 18.237546 69.607619 3.188341 -0.000000 0.000001 -0.000000 -0.055110 15.066837 13.524696 -13.953024 17.135234 57.271146 -39.899598 36.372615 37.714392 -4.812310 -1.247488 0.950377 24.092145 23.921059 -0.567626 7.579026 -24.787376 -2.906459 -3.860345 -7.628451 -23.871296 0.000002 -0.000001 0.000001 5.580830 13.047934 -10.649900 0.354855 -1.784726 22.488750 0.023882 -0.471575 5.798829 0.000000 -0.000002 0.000002 -36.097205 2.626202 22.159538 31.842967 -2.408152 4.057146 -4.122036 1.849963 -18.371508 -0.691615 0.012574 -1.041745 0.000000 -0.000001 0.000000 -32.175904 -5.203157 -13.519723 37.306920 -5.280687 -1.179855 -11.690747 -2.665184 15.201612 -1.914237 0.000046 -0.000481 0.000000 -0.000001 0.000000 
